<svg width="1400" height="900" viewBox="0 0 1400 900" xmlns="http://www.w3.org/2000/svg">
  <defs>
    <linearGradient id="bg" x1="0" y1="0" x2="1" y2="1">
      <stop offset="0" stop-color="#f4f6f8"/>
      <stop offset="0.5" stop-color="#cfd8e3"/>
      <stop offset="1" stop-color="#aeb9c6"/>
    </linearGradient>
    <linearGradient id="hero" x1="0" y1="0" x2="0" y2="1">
      <stop offset="0" stop-color="#ffffff" stop-opacity="0.8"/>
      <stop offset="1" stop-color="#dbe5ef" stop-opacity="0.66"/>
    </linearGradient>
    <filter id="shadow" x="-20%" y="-20%" width="140%" height="160%">
      <feDropShadow dx="0" dy="24" stdDeviation="24" flood-color="#0f172a" flood-opacity="0.25"/>
    </filter>
  </defs>

  <rect width="1400" height="900" fill="url(#bg)"/>
  <circle cx="1110" cy="180" r="190" fill="#ffffff" opacity="0.22"/>
  <circle cx="160" cy="770" r="180" fill="#93a6ba" opacity="0.17"/>

  <g filter="url(#shadow)">
    <rect x="95" y="115" width="1210" height="670" rx="60" fill="url(#hero)" stroke="#ffffff" stroke-opacity="0.82" stroke-width="5"/>

    <rect x="145" y="500" width="1110" height="230" rx="36" fill="#ebf1f6" stroke="#ccd6e0" stroke-width="3"/>
    <rect x="145" y="168" width="740" height="290" rx="36" fill="#e8edf3" stroke="#ccd6e0" stroke-width="3"/>
    <rect x="925" y="168" width="330" height="290" rx="36" fill="#e8edf3" stroke="#ccd6e0" stroke-width="3"/>

    <path d="M235 542h640l165 110H235z" fill="#d4dee8"/>
    <path d="M278 542h552l125 82H278z" fill="#f7fafc"/>
    <rect x="398" y="455" width="290" height="95" rx="16" fill="#c5d2df"/>
    <rect x="720" y="558" width="165" height="128" rx="20" fill="#bccad8"/>

    <circle cx="430" cy="700" r="42" fill="#7f8ea0"/>
    <circle cx="910" cy="700" r="42" fill="#7f8ea0"/>

    <rect x="970" y="208" width="238" height="114" rx="22" fill="#ced9e5"/>
    <rect x="970" y="338" width="238" height="84" rx="22" fill="#ced9e5"/>
    <circle cx="1089" cy="276" r="30" fill="#b4c3d3"/>
  </g>

  <text x="155" y="210" font-size="60" font-family="Arial, sans-serif" font-weight="700" fill="#0f172a">Rentables</text>
  <text x="155" y="840" font-size="34" font-family="Arial, sans-serif" fill="#334155">Luxury homes and vehicles available on flexible access terms.</text>
</svg>
