<svg width="1400" height="900" viewBox="0 0 1400 900" xmlns="http://www.w3.org/2000/svg">
  <defs>
    <linearGradient id="bg" x1="0" y1="0" x2="1" y2="1">
      <stop offset="0" stop-color="#f5f6f7"/>
      <stop offset="0.55" stop-color="#d7dde3"/>
      <stop offset="1" stop-color="#b8c1cb"/>
    </linearGradient>
    <linearGradient id="card" x1="0" y1="0" x2="0" y2="1">
      <stop offset="0" stop-color="#ffffff" stop-opacity="0.78"/>
      <stop offset="1" stop-color="#dbe2ea" stop-opacity="0.68"/>
    </linearGradient>
    <filter id="shadow" x="-20%" y="-20%" width="140%" height="160%">
      <feDropShadow dx="0" dy="24" stdDeviation="24" flood-color="#111827" flood-opacity="0.26"/>
    </filter>
  </defs>

  <rect width="1400" height="900" fill="url(#bg)"/>
  <circle cx="220" cy="170" r="180" fill="#ffffff" opacity="0.34"/>
  <circle cx="1220" cy="760" r="230" fill="#94a3b8" opacity="0.16"/>

  <g filter="url(#shadow)">
    <rect x="120" y="120" width="1160" height="660" rx="58" fill="url(#card)" stroke="#ffffff" stroke-opacity="0.85" stroke-width="5"/>
    <rect x="180" y="210" width="320" height="250" rx="30" fill="#f8fafc" stroke="#c5ced8" stroke-width="3"/>
    <rect x="180" y="500" width="320" height="220" rx="30" fill="#f8fafc" stroke="#c5ced8" stroke-width="3"/>

    <rect x="540" y="210" width="320" height="510" rx="34" fill="#eef2f6" stroke="#c5ced8" stroke-width="3"/>
    <rect x="900" y="210" width="320" height="510" rx="34" fill="#eef2f6" stroke="#c5ced8" stroke-width="3"/>

    <circle cx="340" cy="325" r="78" fill="#d4dbe4"/>
    <path d="M292 350h96l-9 74h-78z" fill="#f8fafc" stroke="#9aa6b2" stroke-width="6"/>
    <path d="M317 355v-18a23 23 0 1 1 46 0v18" fill="none" stroke="#9aa6b2" stroke-width="6"/>

    <rect x="262" y="555" width="156" height="82" rx="20" fill="#e5ebf1"/>
    <circle cx="304" cy="595" r="24" fill="#c8d1da"/>
    <circle cx="373" cy="595" r="24" fill="#c8d1da"/>

    <rect x="585" y="254" width="230" height="148" rx="22" fill="#d8e0e8"/>
    <rect x="585" y="430" width="230" height="120" rx="22" fill="#d8e0e8"/>
    <rect x="585" y="570" width="230" height="120" rx="22" fill="#d8e0e8"/>

    <circle cx="1060" cy="315" r="86" fill="#e2e8f0"/>
    <circle cx="1060" cy="315" r="54" fill="#cad3dd"/>
    <circle cx="1060" cy="315" r="20" fill="#f8fafc"/>
    <rect x="965" y="505" width="190" height="155" rx="24" fill="#d8e0e8"/>
    <rect x="1000" y="532" width="120" height="100" rx="12" fill="#bcc7d3"/>
  </g>

  <text x="170" y="180" font-size="62" font-family="Arial, sans-serif" font-weight="700" fill="#101828">Buyables</text>
  <text x="170" y="840" font-size="34" font-family="Arial, sans-serif" fill="#334155">Smart products curated for your everyday premium flow.</text>
</svg>
