<svg width="1400" height="900" viewBox="0 0 1400 900" xmlns="http://www.w3.org/2000/svg">
  <defs>
    <linearGradient id="bg" x1="0" y1="0" x2="1" y2="1">
      <stop offset="0" stop-color="#eef1f4"/>
      <stop offset="0.48" stop-color="#cad2dc"/>
      <stop offset="1" stop-color="#9ea9b8"/>
    </linearGradient>
    <linearGradient id="phone" x1="0" y1="0" x2="0" y2="1">
      <stop offset="0" stop-color="#ffffff" stop-opacity="0.8"/>
      <stop offset="1" stop-color="#dce4ed" stop-opacity="0.74"/>
    </linearGradient>
    <filter id="shadow" x="-20%" y="-20%" width="140%" height="160%">
      <feDropShadow dx="0" dy="24" stdDeviation="24" flood-color="#020617" flood-opacity="0.3"/>
    </filter>
  </defs>

  <rect width="1400" height="900" fill="url(#bg)"/>
  <circle cx="205" cy="180" r="185" fill="#ffffff" opacity="0.25"/>
  <circle cx="1210" cy="760" r="235" fill="#94a3b8" opacity="0.15"/>

  <g filter="url(#shadow)">
    <rect x="170" y="95" width="860" height="710" rx="68" fill="url(#phone)" stroke="#ffffff" stroke-opacity="0.85" stroke-width="5"/>
    <rect x="232" y="165" width="736" height="572" rx="44" fill="#1f2937"/>
    <rect x="232" y="165" width="736" height="572" rx="44" fill="url(#bg)" opacity="0.45"/>
    <circle cx="600" cy="450" r="86" fill="#ffffff" fill-opacity="0.86"/>
    <path d="M568 405l70 45-70 45z" fill="#334155"/>

    <rect x="1080" y="220" width="230" height="520" rx="36" fill="#edf2f7" stroke="#d0d9e2" stroke-width="3"/>
    <rect x="1120" y="280" width="150" height="32" rx="14" fill="#d2dbe5"/>
    <rect x="1120" y="332" width="150" height="32" rx="14" fill="#d2dbe5"/>
    <rect x="1120" y="384" width="150" height="32" rx="14" fill="#d2dbe5"/>
    <rect x="1120" y="436" width="150" height="32" rx="14" fill="#d2dbe5"/>
    <rect x="1120" y="488" width="150" height="32" rx="14" fill="#d2dbe5"/>
    <rect x="1120" y="540" width="150" height="32" rx="14" fill="#d2dbe5"/>
  </g>

  <text x="210" y="152" font-size="60" font-family="Arial, sans-serif" font-weight="700" fill="#111827">Pixe</text>
  <text x="210" y="846" font-size="34" font-family="Arial, sans-serif" fill="#334155">Short-form visual feed with premium creators and live moments.</text>
</svg>
