<svg width="1400" height="900" viewBox="0 0 1400 900" xmlns="http://www.w3.org/2000/svg">
  <defs>
    <linearGradient id="bg" x1="0" y1="0" x2="1" y2="1">
      <stop offset="0" stop-color="#f4f6f8"/>
      <stop offset="0.5" stop-color="#d0d8e1"/>
      <stop offset="1" stop-color="#aab6c3"/>
    </linearGradient>
    <linearGradient id="panel" x1="0" y1="0" x2="0" y2="1">
      <stop offset="0" stop-color="#ffffff" stop-opacity="0.81"/>
      <stop offset="1" stop-color="#dde6ef" stop-opacity="0.7"/>
    </linearGradient>
    <filter id="shadow" x="-20%" y="-20%" width="140%" height="160%">
      <feDropShadow dx="0" dy="24" stdDeviation="24" flood-color="#111827" flood-opacity="0.24"/>
    </filter>
  </defs>

  <rect width="1400" height="900" fill="url(#bg)"/>
  <circle cx="260" cy="145" r="175" fill="#ffffff" opacity="0.25"/>
  <circle cx="1160" cy="780" r="210" fill="#94a3b8" opacity="0.18"/>

  <g filter="url(#shadow)">
    <rect x="115" y="115" width="1170" height="670" rx="58" fill="url(#panel)" stroke="#ffffff" stroke-opacity="0.84" stroke-width="5"/>

    <rect x="170" y="185" width="1060" height="170" rx="28" fill="#ebf1f6" stroke="#ccd6e0" stroke-width="3"/>
    <rect x="170" y="385" width="1060" height="330" rx="34" fill="#e4ebf2" stroke="#c8d1dc" stroke-width="3"/>

    <rect x="220" y="430" width="960" height="210" rx="18" fill="#c7d3df"/>
    <rect x="240" y="455" width="920" height="165" rx="14" fill="#f8fafc"/>

    <rect x="280" y="472" width="180" height="130" fill="#d8e1ea"/>
    <rect x="490" y="472" width="180" height="130" fill="#d8e1ea"/>
    <rect x="700" y="472" width="180" height="130" fill="#c4d0dc"/>
    <rect x="910" y="472" width="180" height="130" fill="#bcc9d6"/>

    <rect x="260" y="220" width="290" height="95" rx="18" fill="#d4dde7"/>
    <rect x="575" y="220" width="290" height="95" rx="18" fill="#d4dde7"/>
    <rect x="890" y="220" width="290" height="95" rx="18" fill="#d4dde7"/>
  </g>

  <text x="185" y="170" font-size="58" font-family="Arial, sans-serif" font-weight="700" fill="#111827">Stores</text>
  <text x="185" y="844" font-size="34" font-family="Arial, sans-serif" fill="#334155">Enter branded storefronts with immersive premium shopping journeys.</text>
</svg>
