<svg xmlns="http://www.w3.org/2000/svg"
shape-rendering="geometricPrecision"
width="4000" height="4000" viewBox="0 0 1024 1024"><rect width="100%" height="100%" fill="#FFFFFE" />
  <metadata>null</metadata>

<path d="
M 481.047 319.378
C 481.005 320.487 479.883 320.267 478.985 320.295
C 476.948 320.358 474.94 320.27 472.906 320.15
C 463.685 319.602 454.526 319.473 445.279 319.71
C 422.786 320.288 400.13 326.286 379.857 335.923
C 337.222 356.189 301.508 391.536 283.34 435.364
C 280.691 441.755 277.849 448.138 276.089 454.804
C 275.807 455.872 275.072 456.833 274.791 457.948
C 272.945 465.263 272.421 473.101 271.664 480.588
C 270.126 495.787 269.18 510.781 271.432 525.991
C 272.121 530.647 273.567 535.026 274.654 539.551
C 275.17 541.699 273.897 540.271 272.916 540.532
C 271.854 540.815 269.931 541.706 270.437 543.08
C 260.732 535.48 252.373 524.948 245.643 514.71
C 222.417 479.382 219.757 433.983 236.278 395.445
C 246.131 372.462 262.921 352.911 282.439 337.558
C 328.177 301.58 393.511 292.035 448.978 307.044
C 460.146 310.066 470.543 314.627 481.047 319.378 Z"
opacity="1" fill="rgb(26,58,141)" fill-rule="evenodd" />
<path d="
M 481.047 319.378
C 486.083 321.529 490.971 324.558 495.633 327.417
C 505.358 333.38 514.498 340.033 523 347.645
C 526.396 350.686 529.692 353.867 532.773 357.232
C 533.888 358.449 535.614 359.903 536.404 361.323
C 530.594 361.063 524.428 362.072 518.735 363.126
C 507.181 365.265 496.023 368.819 485.253 373.502
C 436.32 394.78 397.215 439.317 385.981 492.007
C 382.542 508.133 381.11 524.554 382.483 541.013
C 382.948 546.587 383.643 552.172 384.648 557.68
C 385.152 560.44 386.428 564.033 386.209 566.813
C 384.698 568.399 382.673 569.557 380.983 570.949
C 376.997 574.235 372.993 577.5 369.012 580.794
C 367.078 582.395 365.001 583.813 363.301 585.676
C 362.529 585.874 361.353 585.436 360.581 585.267
C 358.668 584.847 356.754 584.379 354.851 583.917
C 354.052 583.723 352.961 583.319 352.141 583.554
C 350.488 584.029 348.883 585.692 347.578 586.763
C 344.578 589.223 341.44 591.526 338.4 593.939
C 328.705 601.636 318.716 608.944 308.909 616.497
C 302.837 621.174 296.673 625.717 290.456 630.203
C 288.429 631.665 286.471 633.232 284.458 634.715
C 284.149 634.943 281.504 636.823 281.493 636.685
C 282.073 633.588 281.76 630.164 281.822 627.02
C 281.94 621.147 282.022 615.273 282.122 609.399
C 282.441 590.629 282.73 571.845 282.85 553.073
C 278.767 549.687 274.295 546.747 270.437 543.08
C 269.931 541.706 271.854 540.815 272.916 540.532
C 273.897 540.271 275.17 541.699 274.654 539.551
C 273.567 535.026 272.121 530.647 271.432 525.991
C 269.18 510.781 270.126 495.787 271.664 480.588
C 272.421 473.101 272.945 465.263 274.791 457.948
C 275.072 456.833 275.807 455.872 276.089 454.804
C 277.849 448.138 280.691 441.755 283.34 435.364
C 301.508 391.536 337.222 356.189 379.857 335.923
C 400.13 326.286 422.786 320.288 445.279 319.71
C 454.526 319.473 463.685 319.602 472.906 320.15
C 474.94 320.27 476.948 320.358 478.985 320.295
C 479.883 320.267 481.005 320.487 481.047 319.378 Z
M 277.341 458.07
C 276.726 461.007 276.905 464.163 277.446 467.095
C 277.91 469.605 278.849 471.898 280.095 474.116
C 287.99 488.178 308.961 488.313 317.766 475.268
C 319.222 473.111 320.365 470.651 320.927 468.105
C 324.265 452.972 312.199 437.74 296.249 439.891
C 293.353 440.282 290.639 441.323 288.106 442.764
C 285.378 444.318 283.021 446.725 281.188 449.25
C 279.304 451.846 277.998 454.937 277.341 458.07 Z
M 340.93 458.598
C 340.443 461.694 340.689 465.079 341.484 468.104
C 345.61 483.789 365.411 490.096 377.928 479.767
C 379.869 478.165 381.471 476.118 382.696 473.925
C 384.004 471.586 385.028 469.072 385.468 466.415
C 386.031 463.009 385.821 459.421 384.962 456.083
C 384.231 453.245 382.9 450.681 381.167 448.337
C 379.548 446.146 377.671 444.279 375.353 442.84
C 361.716 434.368 343.438 442.656 340.93 458.598 Z"
opacity="1" fill="rgb(21,38,119)" fill-rule="evenodd" />
<path d="
M 277.341 458.07
C 277.998 454.937 279.304 451.846 281.188 449.25
C 283.021 446.725 285.378 444.318 288.106 442.764
C 290.639 441.323 293.353 440.282 296.249 439.891
C 312.199 437.74 324.265 452.972 320.927 468.105
C 320.365 470.651 319.222 473.111 317.766 475.268
C 308.961 488.313 287.99 488.178 280.095 474.116
C 278.849 471.898 277.91 469.605 277.446 467.095
C 276.905 464.163 276.726 461.007 277.341 458.07 Z"
opacity="1" fill="rgb(37,113,180)" fill-rule="evenodd" />
<path d="
M 340.93 458.598
C 343.438 442.656 361.716 434.368 375.353 442.84
C 377.671 444.279 379.548 446.146 381.167 448.337
C 382.9 450.681 384.231 453.245 384.962 456.083
C 385.821 459.421 386.031 463.009 385.468 466.415
C 385.028 469.072 384.004 471.586 382.696 473.925
C 381.471 476.118 379.869 478.165 377.928 479.767
C 365.411 490.096 345.61 483.789 341.484 468.104
C 340.689 465.079 340.443 461.694 340.93 458.598 Z"
opacity="1" fill="rgb(39,125,190)" fill-rule="evenodd" />
<path d="
M 472.203 533.631
C 472.074 534.426 472.64 534.503 473.109 535.007
C 473.978 535.94 473.873 538.574 474.277 539.81
C 474.415 540.356 475.173 537.229 475.418 536.542
C 476.319 534.012 477.236 531.484 478.159 528.961
C 480.85 521.605 484.982 514.78 489.756 508.614
C 503.197 491.253 523.271 480.388 544.939 477.625
C 550.074 476.97 555.108 476.753 560.284 476.915
C 561.425 476.951 564.675 476.901 565.316 477.987
C 564.52 482.354 562.52 486.734 560.887 490.841
C 555.574 504.206 548.162 516.853 539.025 527.968
C 510.471 562.701 468.919 584.221 424.297 588.953
C 415.916 589.842 407.126 590.468 398.705 589.993
C 398.654 588.903 401.92 586.952 402.741 586.222
C 407.194 582.262 411.978 578.432 416.774 574.899
C 426.683 567.6 436.042 559.369 445.672 551.697
C 454.041 545.03 463.242 539.434 472.203 533.631 Z"
opacity="1" fill="rgb(39,106,174)" fill-rule="evenodd" />
<path d="
M 406.454 522.114
C 406.873 518.282 406.914 514.443 407.489 510.616
C 409.418 497.784 412.636 485.405 417.742 473.453
C 435.328 432.286 472.623 399.776 516.542 389.897
C 532.033 386.413 547.687 386.31 563.48 386.265
C 579.155 386.22 594.829 386.25 610.503 386.246
C 627.17 386.242 643.837 386.224 660.504 386.236
C 666.004 386.24 671.505 386.223 677.005 386.256
C 679.79 386.273 682.776 386.006 685.528 386.435
C 683.652 393.939 681.461 401.432 677.469 408.128
C 668.949 422.419 655.321 431.498 638.874 433.968
C 630.309 435.255 621.141 434.378 612.501 434.381
C 596.835 434.388 581.17 434.423 565.504 434.432
C 555.802 434.438 546.032 434.104 536.349 434.761
C 505.913 436.825 477.533 456.718 462.706 482.945
C 458.041 491.196 454.468 500.281 452.28 509.5
C 451.556 512.549 451.225 515.637 450.597 518.688
C 448.015 521.571 443.967 523.634 440.895 525.997
C 434.767 530.71 428.631 535.467 422.397 540.042
C 419.168 542.411 416.032 544.918 412.761 547.23
C 411.527 548.102 410.291 549.002 409.112 549.948
C 408.944 550.082 408.088 551 407.929 550.672
C 407.735 547.498 407.072 544.336 406.802 541.159
C 406.267 534.853 406.127 528.435 406.454 522.114 Z"
opacity="1" fill="rgb(40,120,184)" fill-rule="evenodd" />
<path d="
M 721.881 525.945
C 721.867 525.763 720.71 524.683 720.438 525.018
C 718.661 527.214 717.585 530.257 716.027 532.645
C 712.583 537.923 708.362 542.665 704.243 547.418
C 691.691 561.901 677.189 575.007 661.158 585.554
C 641.46 598.514 619.953 609.208 597.599 616.724
C 586.796 620.356 575.824 623.052 564.807 625.918
C 556.819 627.995 548.54 628.697 540.412 630.005
C 536.298 630.667 532.285 631.665 528.148 632.238
C 525.65 632.585 522.976 632.394 520.518 632.934
C 519.704 633.113 518.832 634.278 518.228 634.315
C 517.739 634.345 517.47 633.383 516.907 633.668
C 516.233 634.012 516.143 635 515.398 635.185
C 514.17 635.491 513.259 633.956 511.868 634.21
C 511.202 634.331 511.155 635.043 510.408 635.151
C 508.034 635.496 505.651 634.858 503.288 634.756
C 501.457 634.676 499.778 635.281 497.999 635.318
C 482.204 635.133 466.402 635.443 450.609 635.132
C 450.41 631.004 452.203 626 453.626 622.178
C 459.155 607.336 470.553 595.599 485.778 590.816
C 493.404 588.42 501.163 588.276 509.081 588.27
C 516.078 588.264 523.075 588.27 530.072 588.261
C 556.383 588.23 582.694 588.204 609.005 588.243
C 618.172 588.256 627.34 588.248 636.507 588.261
C 639.007 588.265 641.507 588.283 644.008 588.283
C 644.977 588.283 646.589 588.564 647.469 588.165
C 649.551 583.598 651.069 578.712 652.962 574.056
C 656.615 565.067 660.147 556.035 663.715 547.013
C 674.861 518.828 685.578 490.474 696.762 462.302
C 703.599 445.083 710.028 427.702 716.802 410.458
C 719.399 403.845 721.906 397.2 724.468 390.575
C 725.85 387.002 727.787 383.232 728.69 379.521
C 728.344 379.041 727.651 378.937 727.121 378.726
C 725.527 378.091 723.911 377.504 722.312 376.882
C 716.36 374.565 710.251 372.627 704.354 370.167
C 702.557 369.417 700.716 368.767 698.915 368.026
C 698.21 367.736 697.302 367.832 697.235 367.011
C 704.003 362.397 711.202 358.371 718.141 354.008
C 728.012 347.801 737.856 341.554 747.735 335.359
C 754.05 331.4 760.369 327.444 766.633 323.402
C 770.272 321.054 773.94 318.159 777.836 316.273
C 783.988 338.057 790.266 359.85 796.103 381.728
C 797.633 387.461 799.252 393.242 801.067 398.891
C 802.045 401.937 803.712 405.669 803.913 408.864
C 795.753 406.149 787.874 402.343 779.843 399.256
C 777.276 398.269 774.585 396.947 771.911 396.334
C 771.248 400.403 768.746 404.637 767.367 408.542
C 763.634 419.111 759.307 429.448 755.374 439.939
C 747.955 459.732 740.052 479.36 732.251 499.006
C 729.58 505.734 726.956 512.498 724.391 519.265
C 723.549 521.486 722.915 523.799 721.881 525.945 Z"
opacity="1" fill="rgb(42,122,185)" fill-rule="evenodd" />
<path d="
M 463.396 686.593
C 466.096 665.924 490.257 653.222 508.888 662.633
C 521.746 669.128 527.954 683.075 526.209 697.06
C 523.656 717.523 500.662 729.133 482.248 721.107
C 468.814 715.251 461.523 700.94 463.396 686.593 Z"
opacity="1" fill="rgb(42,83,157)" fill-rule="evenodd" />
<path d="
M 565.316 477.987
C 564.675 476.901 561.425 476.951 560.284 476.915
C 555.108 476.753 550.074 476.97 544.939 477.625
C 523.271 480.388 503.197 491.253 489.756 508.614
C 484.982 514.78 480.85 521.605 478.159 528.961
C 477.236 531.484 476.319 534.012 475.418 536.542
C 475.173 537.229 474.415 540.356 474.277 539.81
C 473.873 538.574 473.978 535.94 473.109 535.007
C 472.64 534.503 472.074 534.426 472.203 533.631
C 473.056 532.816 472.947 531.341 473.024 530.234
C 473.204 527.641 473.482 525.054 473.864 522.483
C 475 514.833 477.614 507.438 481.147 500.574
C 489.291 484.752 502.422 471.731 518.93 464.829
C 527.291 461.333 536.225 459.88 545.199 459.129
C 550.588 458.678 555.906 458.964 561.291 459.205
C 563.73 459.315 566.674 459.097 569.007 459.883
C 568.164 466.011 567.105 472.054 565.316 477.987 Z"
opacity="1" fill="rgb(36,97,166)" fill-rule="evenodd" />
<path d="
M 497.999 635.318
C 499.778 635.281 501.457 634.676 503.288 634.756
C 505.651 634.858 508.034 635.496 510.408 635.151
C 511.155 635.043 511.202 634.331 511.868 634.21
C 513.259 633.956 514.17 635.491 515.398 635.185
C 516.143 635 516.233 634.012 516.907 633.668
C 517.47 633.383 517.739 634.345 518.228 634.315
C 518.832 634.278 519.704 633.113 520.518 632.934
C 522.976 632.394 525.65 632.585 528.148 632.238
C 532.285 631.665 536.298 630.667 540.412 630.005
C 548.54 628.697 556.819 627.995 564.807 625.918
C 575.824 623.052 586.796 620.356 597.599 616.724
C 619.953 609.208 641.46 598.514 661.158 585.554
C 677.189 575.007 691.691 561.901 704.243 547.418
C 708.362 542.665 712.583 537.923 716.027 532.645
C 717.585 530.257 718.661 527.214 720.438 525.018
C 720.71 524.683 721.867 525.763 721.881 525.945
C 721.347 527.629 720.49 529.218 719.868 530.873
C 716.341 539.236 713.293 547.822 710.042 556.295
C 703.92 572.253 697.557 588.136 691.252 604.023
C 688.612 610.676 685.824 617.277 683.253 623.958
C 681.827 627.665 680.636 631.727 678.697 635.2
C 677.269 635.55 675.472 635.287 674.001 635.289
C 671.168 635.292 668.334 635.297 665.501 635.289
C 656.168 635.264 646.835 635.271 637.502 635.265
C 607.668 635.243 577.834 635.33 548 635.286
C 536.329 635.269 524.657 635.285 512.987 635.339
C 509.653 635.354 506.319 635.324 502.986 635.333
C 501.443 635.337 499.471 635.89 497.999 635.318 Z"
opacity="1" fill="rgb(39,90,162)" fill-rule="evenodd" />
<path d="
M 600.953 689.105
C 602.045 674.663 613.556 661.492 628.23 659.843
C 645.048 657.952 661.7 668.711 664.495 686.004
C 664.869 688.319 665.326 691.013 665.038 693.36
C 663.928 702.404 661.145 710.444 653.838 716.474
C 637.271 730.147 610.771 724.139 602.976 703.598
C 601.252 699.053 600.587 693.951 600.953 689.105 Z"
opacity="1" fill="rgb(42,90,163)" fill-rule="evenodd" />

</svg>